<svg xmlns="http://www.w3.org/2000/svg" xmlns:xlink="http://www.w3.org/1999/xlink" viewBox="0 0 280 237" preserveAspectRatio="xMidYMid" style="display: block; shape-rendering: auto; background: rgb(255, 255, 255);" width="280" height="237"><style type="text/css">
  .ld-text text {
    text-anchor: middle;
    dominant-baseline: middle;
    font-size: 40px;
    opacity: 0;
    user-select: none;
    pointer-events: none;
  }
</style>
<g style="transform-origin:140px 118.5px;transform:scale(1)" class="ld-text">
<g transform="translate(140,118.5)">
  <g transform="scale(0.5000) translate(0,0)"><g class="path" style="opacity: 1; transform-origin: -222.13px -5.28px; transform: matrix3d(0.91, 0, 0, 0, 0, 0.91, 0, 0, 0, 0, 0.91, 0, 0, 0, 0, 1); animation: 0.420168s linear -0.255979s infinite normal forwards running animate-rtjiqnvf5fs; transform-box: view-box;"><path d="M53.52 40.96L53.52 44.40L34.49 44.40L34.49 40.96L39.10 40.57Q39.41 40.57 39.69 40.16Q39.96 39.75 39.96 39.40L39.96 39.40Q39.96 39.24 39.92 39.20L39.92 39.20L34.41 24.56L15.94 24.56L10.63 38.97Q10.59 39.05 10.59 39.20L10.59 39.20Q10.59 39.67 11 40.12Q11.41 40.57 11.76 40.57L11.76 40.57L16.48 40.96L16.48 44.40L0.39 44.40L0.39 40.96L5.04 39.99L23.67-10.56L29.69-10.56L48.24 38.81Q48.55 39.63 48.79 39.91Q49.02 40.18 49.92 40.34L49.92 40.34L53.52 40.96 zM17.34 20.73L32.97 20.73L25.12-0.25L17.34 20.73" style="fill: rgb(30, 45, 59);" transform="translate(-249.080,-22.202)"></path></g><g class="path" style="opacity: 1; transform-origin: -172.29px -6.79px; transform: matrix3d(0.91, 0, 0, 0, 0, 0.91, 0, 0, 0, 0, 0.91, 0, 0, 0, 0, 1); animation: 0.420168s linear -0.234648s infinite normal forwards running animate-rtjiqnvf5fs; transform-box: view-box;"><path d="M96.95 41.27L96.95 44.40L84.38 44.40L84.38 40.14Q81.64 42.25 78.55 43.81Q75.47 45.38 71.99 45.38L71.99 45.38Q67.97 45.38 65.06 43.68Q62.15 41.98 60.29 39.17Q58.44 36.35 57.54 32.95Q56.64 29.56 56.64 26.16L56.64 26.16Q56.64 20.73 58.87 15.86Q61.09 11 65.63 7.94Q70.16 4.87 77.03 4.87L77.03 4.87Q78.95 4.87 81.19 5.24Q83.44 5.61 84.38 5.85L84.38 5.85L84.38-8.80L78.32-8.80L78.32-11.46L88.63-14.55L91.84-14.55L91.84 39.28Q91.84 40.92 93.52 41.04L93.52 41.04L96.95 41.27 zM84.38 37.13L84.38 37.13L84.38 9.91Q83.36 9.56 81.35 9.15Q79.34 8.74 77.58 8.74L77.58 8.74Q71.64 8.74 68.09 13.13Q64.53 17.52 64.53 24.79L64.53 24.79Q64.53 31.31 67.58 35.61Q70.63 39.91 76.13 39.91L76.13 39.91Q78.55 39.91 80.68 38.99Q82.81 38.07 84.38 37.13" style="fill: rgb(40, 55, 69);" transform="translate(-249.080,-22.202)"></path></g><g class="path" style="opacity: 1; transform-origin: -127.17px -6.79px; transform: matrix3d(0.91, 0, 0, 0, 0, 0.91, 0, 0, 0, 0, 0.91, 0, 0, 0, 0, 1); animation: 0.420168s linear -0.213316s infinite normal forwards running animate-rtjiqnvf5fs; transform-box: view-box;"><path d="M142.07 41.27L142.07 44.40L129.49 44.40L129.49 40.14Q126.76 42.25 123.67 43.81Q120.59 45.38 117.11 45.38L117.11 45.38Q113.09 45.38 110.18 43.68Q107.27 41.98 105.41 39.17Q103.55 36.35 102.66 32.95Q101.76 29.56 101.76 26.16L101.76 26.16Q101.76 20.73 103.98 15.86Q106.21 11 110.74 7.94Q115.27 4.87 122.15 4.87L122.15 4.87Q124.06 4.87 126.31 5.24Q128.55 5.61 129.49 5.85L129.49 5.85L129.49-8.80L123.44-8.80L123.44-11.46L133.75-14.55L136.95-14.55L136.95 39.28Q136.95 40.92 138.63 41.04L138.63 41.04L142.07 41.27 zM129.49 37.13L129.49 37.13L129.49 9.91Q128.48 9.56 126.46 9.15Q124.45 8.74 122.70 8.74L122.70 8.74Q116.76 8.74 113.20 13.13Q109.65 17.52 109.65 24.79L109.65 24.79Q109.65 31.31 112.70 35.61Q115.74 39.91 121.25 39.91L121.25 39.91Q123.67 39.91 125.80 38.99Q127.93 38.07 129.49 37.13" style="fill: rgb(50, 65, 79);" transform="translate(-249.080,-22.202)"></path></g><g class="path" style="opacity: 1; transform-origin: -92.42px -29.52px; transform: matrix3d(0.91, 0, 0, 0, 0, 0.91, 0, 0, 0, 0, 0.91, 0, 0, 0, 0, 1); animation: 0.420168s linear -0.191984s infinite normal forwards running animate-rtjiqnvf5fs; transform-box: view-box;"><path d="M161.56-7.36L161.56-7.36Q161.56-5.33 160.16-3.86Q158.75-2.40 156.72-2.40L156.72-2.40Q154.69-2.40 153.22-3.86Q151.76-5.33 151.76-7.36L151.76-7.36Q151.76-9.43 153.22-10.83Q154.69-12.24 156.72-12.24L156.72-12.24Q158.75-12.24 160.16-10.83Q161.56-9.43 161.56-7.36" style="fill: rgb(60, 75, 89);" transform="translate(-249.080,-22.202)"></path></g><g class="path" style="opacity: 1; transform-origin: -92.81px 2.43px; transform: matrix3d(0.91, 0, 0, 0, 0, 0.91, 0, 0, 0, 0, 0.91, 0, 0, 0, 0, 1); animation: 0.420168s linear -0.170653s infinite normal forwards running animate-rtjiqnvf5fs; transform-box: view-box;"><path d="M165.66 41.27L165.66 44.40L146.88 44.40L146.88 41.27L150.78 41.04Q152.46 40.92 152.46 39.28L152.46 39.28L152.46 10.73L146.95 10.73L146.95 7.92L156.72 4.87L159.88 4.87L159.88 39.28Q159.88 40.02 160.37 40.49Q160.86 40.96 161.56 41.04L161.56 41.04L165.66 41.27" style="fill: rgb(70, 85, 99);" transform="translate(-249.080,-22.202)"></path></g><g class="path" style="opacity: 1; transform-origin: -58.01px 2.43px; transform: matrix3d(0.91, 0, 0, 0, 0, 0.91, 0, 0, 0, 0, 0.91, 0, 0, 0, 0, 1); animation: 0.420168s linear -0.149321s infinite normal forwards running animate-rtjiqnvf5fs; transform-box: view-box;"><path d="M212.15 41.27L212.15 44.40L194.49 44.40L194.49 41.27L197.85 41.04Q198.55 40.96 199.04 40.49Q199.53 40.02 199.53 39.28L199.53 39.28L199.53 18.46Q199.53 14.67 197.77 12.70Q196.02 10.73 191.84 10.73L191.84 10.73Q189.57 10.73 187.32 11.37Q185.08 12.02 183.05 13.03L183.05 13.03L183.05 39.28Q183.05 40.92 184.73 41.04L184.73 41.04L188.09 41.27L188.09 44.40L170 44.40L170 41.27L173.91 41.04Q175.59 40.92 175.59 39.28L175.59 39.28L175.59 11.51L170 11.51L170 8.89L179.77 5.85L183.05 5.85L183.05 9.83Q186.41 7.92 189.94 6.39Q193.48 4.87 196.25 4.87L196.25 4.87Q201.48 4.87 204.22 8.13Q206.95 11.39 206.95 17.21L206.95 17.21L206.95 39.28Q206.95 40.02 207.44 40.49Q207.93 40.96 208.63 41.04L208.63 41.04L212.15 41.27" style="fill: rgb(30, 45, 59);" transform="translate(-249.080,-22.202)"></path></g><g class="path" style="opacity: 1; transform-origin: -13.65px 11.59px; transform: matrix3d(0.91, 0, 0, 0, 0, 0.91, 0, 0, 0, 0, 0.91, 0, 0, 0, 0, 1); animation: 0.420168s linear -0.12799s infinite normal forwards running animate-rtjiqnvf5fs; transform-box: view-box;"><path d="M254.38 7.29L254.38 11.20L246.41 11.20Q247.30 12.64 247.93 14.36Q248.55 16.08 248.55 18.38L248.55 18.38Q248.55 22.37 246.37 25.20Q244.18 28.03 240.61 29.56Q237.03 31.08 232.85 31.08L232.85 31.08Q232.46 31.08 232.07 31.08Q231.68 31.08 231.29 31.04L231.29 31.04Q230.78 31.86 230.61 32.80Q230.43 33.74 230.43 34.56L230.43 34.56Q230.43 35.30 230.51 35.81Q230.59 36.31 230.63 36.39L230.63 36.39L231.76 36.51Q234.57 36.78 238.07 37.29Q241.56 37.80 244.82 38.93Q248.09 40.06 250.20 42.13Q252.30 44.20 252.30 47.60L252.30 47.60Q252.30 51.39 249.53 54.85Q246.76 58.31 242.05 60.51Q237.34 62.72 231.52 62.72L231.52 62.72Q224.38 62.72 220.43 59.46Q216.48 56.20 216.48 51.35L216.48 51.35Q216.48 47.88 218.55 45.16Q220.63 42.45 224.96 41.67L224.96 41.67Q224.53 40.42 224.34 39.87Q224.14 39.32 224.14 37.99L224.14 37.99Q224.14 36.43 225.10 34.54Q226.05 32.64 228.16 30.49L228.16 30.49Q224.18 29.60 221.21 26.45Q218.24 23.31 218.24 18.46L218.24 18.46Q218.24 12.17 222.68 8.52Q227.11 4.87 234.30 4.87L234.30 4.87Q237.15 4.87 239.59 5.71Q242.03 6.55 243.59 7.29L243.59 7.29L254.38 7.29 zM240.94 17.92L240.94 17.92Q240.94 15.38 240.08 13.15Q239.22 10.92 237.58 9.54Q235.94 8.15 233.52 8.15L233.52 8.15Q230.16 8.15 228.03 10.75Q225.90 13.35 225.90 17.99L225.90 17.99Q225.90 22.02 227.81 24.89Q229.73 27.76 233.52 27.76L233.52 27.76Q237.11 27.76 239.02 24.87Q240.94 21.98 240.94 17.92 zM245.43 49.75L245.43 49.75Q245.43 47.25 243.69 45.88Q241.95 44.52 239.38 43.85Q236.80 43.19 234.18 42.90Q231.56 42.60 229.77 42.25L229.77 42.25Q226.29 43.50 224.98 45.65Q223.67 47.80 223.67 49.75L223.67 49.75Q223.67 51.67 224.79 53.83Q225.90 56 228.22 57.53Q230.55 59.05 234.14 59.05L234.14 59.05Q237.97 59.05 240.47 57.53Q242.97 56 244.20 53.83Q245.43 51.67 245.43 49.75" style="fill: rgb(40, 55, 69);" transform="translate(-249.080,-22.202)"></path></g><g class="path" style="opacity: 1; transform-origin: 70.26px -4.64px; transform: matrix3d(0.91, 0, 0, 0, 0, 0.91, 0, 0, 0, 0, 0.91, 0, 0, 0, 0, 1); animation: 0.420168s linear -0.106658s infinite normal forwards running animate-rtjiqnvf5fs; transform-box: view-box;"><path d="M344.34 17.45L344.34 17.45Q344.34 22.68 342.81 27.52Q341.29 32.37 337.99 36.18Q334.69 39.99 329.39 42.19Q324.10 44.40 316.56 44.40L316.56 44.40L294.34 44.40L294.34 40.96L298.55 40.65Q299.41 40.57 299.86 40.02Q300.31 39.48 300.31 38.89L300.31 38.89L300.31-3.76Q300.31-4.35 299.86-4.92Q299.41-5.48 298.55-5.52L298.55-5.52L294.34-5.83L294.34-9.27L314.96-9.27Q323.36-9.27 330-6.44Q336.64-3.61 340.49 2.29Q344.34 8.19 344.34 17.45 zM335.27 17.60L335.27 17.60Q335.27 9.20 332.71 4.15Q330.16-0.91 325.49-3.18Q320.82-5.44 314.49-5.44L314.49-5.44L308.40-5.44L308.40 40.57L314.88 40.49Q321.05 40.42 325.63 38.13Q330.20 35.85 332.73 30.85Q335.27 25.85 335.27 17.60" style="fill: rgb(50, 65, 79);" transform="translate(-249.080,-22.202)"></path></g><g class="path" style="opacity: 1; transform-origin: 119.4px 2.92px; transform: matrix3d(0.91, 0, 0, 0, 0, 0.91, 0, 0, 0, 0, 0.91, 0, 0, 0, 0, 1); animation: 0.420168s linear -0.0853264s infinite normal forwards running animate-rtjiqnvf5fs; transform-box: view-box;"><path d="M386.80 41.27L386.80 44.40L374.96 44.40L373.91 39.67Q373.91 39.67 372.71 40.53Q371.52 41.39 369.57 42.52Q367.62 43.66 365.25 44.52Q362.89 45.38 360.55 45.38L360.55 45.38Q356.21 45.38 353.18 42.49Q350.16 39.60 350.16 34.56L350.16 34.56Q350.16 32.33 350.96 30.42Q351.76 28.50 354.16 26.76Q356.56 25.02 361.31 23.36Q366.05 21.70 373.91 19.99L373.91 19.99L373.91 16.55Q373.91 8.66 366.45 8.66L366.45 8.66Q364.38 8.66 362.87 9.05Q361.37 9.44 360.78 9.67L360.78 9.67L360.78 16.63L354.96 16.63Q353.87 16.63 352.93 16.22Q351.99 15.81 351.99 14.32L351.99 14.32Q351.99 11.04 354.49 8.95Q356.99 6.86 360.84 5.86Q364.69 4.87 368.63 4.87L368.63 4.87Q373.59 4.87 376.33 6.41Q379.06 7.95 380.16 10.67Q381.25 13.38 381.25 16.86L381.25 16.86L381.25 39.28Q381.25 40.02 381.74 40.49Q382.23 40.96 382.93 41.04L382.93 41.04L386.80 41.27 zM373.91 36.86L373.91 36.86L373.91 23.03Q368.52 24.36 365.33 25.71Q362.15 27.06 360.59 28.40Q359.02 29.75 358.54 31.14Q358.05 32.52 358.05 34.01L358.05 34.01Q358.05 36.47 359.63 38.56Q361.21 40.65 364.06 40.65L364.06 40.65Q365.66 40.65 367.38 40.08Q369.10 39.52 370.59 38.76Q372.07 37.99 372.99 37.43Q373.91 36.86 373.91 36.86" style="fill: rgb(60, 75, 89);" transform="translate(-249.080,-22.202)"></path></g><g class="path" style="opacity: 1; transform-origin: 153.44px -1.43px; transform: matrix3d(0.91, 0, 0, 0, 0, 0.91, 0, 0, 0, 0, 0.91, 0, 0, 0, 0, 1); animation: 0.420168s linear -0.0639948s infinite normal forwards running animate-rtjiqnvf5fs; transform-box: view-box;"><path d="M414.77 39.52L414.77 39.52L414.77 42.72Q414.77 42.72 413.26 43.38Q411.76 44.05 409.32 44.71Q406.88 45.38 403.98 45.38L403.98 45.38Q399.49 45.38 397.44 43.25Q395.39 41.12 395.39 36.39L395.39 36.39L395.39 9.83L390.27 9.83L390.27 7.21L395.74 4.63L399.34-3.84L402.85-3.84L402.85 5.85L414.14 5.85L414.14 9.83L402.85 9.83L402.85 32.17Q402.85 36.94 404.45 38.91Q406.05 40.88 409.26 40.88L409.26 40.88Q411.60 40.88 413.18 40.20Q414.77 39.52 414.77 39.52" style="fill: rgb(70, 85, 99);" transform="translate(-249.080,-22.202)"></path></g><g class="path" style="opacity: 1; transform-origin: 187.29px 2.92px; transform: matrix3d(0.91, 0, 0, 0, 0, 0.91, 0, 0, 0, 0, 0.91, 0, 0, 0, 0, 1); animation: 0.420168s linear -0.0426632s infinite normal forwards running animate-rtjiqnvf5fs; transform-box: view-box;"><path d="M454.69 41.27L454.69 44.40L442.85 44.40L441.80 39.67Q441.80 39.67 440.61 40.53Q439.41 41.39 437.46 42.52Q435.51 43.66 433.14 44.52Q430.78 45.38 428.44 45.38L428.44 45.38Q424.10 45.38 421.07 42.49Q418.05 39.60 418.05 34.56L418.05 34.56Q418.05 32.33 418.85 30.42Q419.65 28.50 422.05 26.76Q424.45 25.02 429.20 23.36Q433.95 21.70 441.80 19.99L441.80 19.99L441.80 16.55Q441.80 8.66 434.34 8.66L434.34 8.66Q432.27 8.66 430.76 9.05Q429.26 9.44 428.67 9.67L428.67 9.67L428.67 16.63L422.85 16.63Q421.76 16.63 420.82 16.22Q419.88 15.81 419.88 14.32L419.88 14.32Q419.88 11.04 422.38 8.95Q424.88 6.86 428.73 5.86Q432.58 4.87 436.52 4.87L436.52 4.87Q441.48 4.87 444.22 6.41Q446.95 7.95 448.05 10.67Q449.14 13.38 449.14 16.86L449.14 16.86L449.14 39.28Q449.14 40.02 449.63 40.49Q450.12 40.96 450.82 41.04L450.82 41.04L454.69 41.27 zM441.80 36.86L441.80 36.86L441.80 23.03Q436.41 24.36 433.22 25.71Q430.04 27.06 428.48 28.40Q426.91 29.75 426.43 31.14Q425.94 32.52 425.94 34.01L425.94 34.01Q425.94 36.47 427.52 38.56Q429.10 40.65 431.95 40.65L431.95 40.65Q433.55 40.65 435.27 40.08Q436.99 39.52 438.48 38.76Q439.96 37.99 440.88 37.43Q441.80 36.86 441.80 36.86" style="fill: rgb(30, 45, 59);" transform="translate(-249.080,-22.202)"></path></g><g class="path" style="opacity: 1; transform-origin: 217.81px 16.05px; transform: matrix3d(0.91, 0, 0, 0, 0, 0.91, 0, 0, 0, 0, 0.91, 0, 0, 0, 0, 1); animation: 0.420168s linear -0.0213316s infinite normal forwards running animate-rtjiqnvf5fs; transform-box: view-box;"><path d="M473.05 38.23L473.05 38.23Q473.05 40.81 471.27 42.60Q469.49 44.40 466.91 44.40L466.91 44.40Q464.30 44.40 462.52 42.60Q460.74 40.81 460.74 38.23L460.74 38.23Q460.74 35.65 462.52 33.87Q464.30 32.10 466.91 32.10L466.91 32.10Q469.49 32.10 471.27 33.87Q473.05 35.65 473.05 38.23" style="fill: rgb(40, 55, 69);" transform="translate(-249.080,-22.202)"></path></g><g class="path" style="opacity: 1; transform-origin: 243.32px 16.05px; transform: matrix3d(0.91, 0, 0, 0, 0, 0.91, 0, 0, 0, 0, 0.91, 0, 0, 0, 0, 1); animation: 0.420168s linear 0s infinite normal forwards running animate-rtjiqnvf5fs; transform-box: view-box;"><path d="M498.55 38.23L498.55 38.23Q498.55 40.81 496.78 42.60Q495 44.40 492.42 44.40L492.42 44.40Q489.80 44.40 488.03 42.60Q486.25 40.81 486.25 38.23L486.25 38.23Q486.25 35.65 488.03 33.87Q489.80 32.10 492.42 32.10L492.42 32.10Q495 32.10 496.78 33.87Q498.55 35.65 498.55 38.23" style="fill: rgb(50, 65, 79);" transform="translate(-249.080,-22.202)"></path></g></g><text dy="0.35em" fill="#1e2d3b" font-family="Abyssinica SIL" font-size="40">Adding Data..</text>
</g>
</g><style type="text/css">@keyframes animate-rtjiqnvf5fs { 0.00% {transform: translate(0.00px,0.00px) rotate(0.00deg) scale(0.91, 0.91) skew(0deg, 0.00deg) ;opacity: 1.00;}4.00% {transform: translate(0.00px,0.00px) rotate(0.00deg) scale(0.91, 0.91) ;}8.00% {animation-timing-function: cubic-bezier(0.69,0.60,0.35,0.27);transform: translate(0.00px,0.00px) rotate(0.00deg) scale(0.91, 0.91) ;}14.00% {transform: translate(0.00px,0.00px) rotate(0.00deg) scale(0.93, 0.93) ;}18.00% {transform: translate(0.00px,0.00px) rotate(0.00deg) scale(0.94, 0.94) ;}22.00% {animation-timing-function: cubic-bezier(0.67,0.66,0.34,0.33);transform: translate(0.00px,0.00px) rotate(0.00deg) scale(0.96, 0.96) ;}26.00% {transform: translate(0.00px,0.00px) rotate(0.00deg) scale(0.97, 0.97) ;}30.00% {transform: translate(0.00px,0.00px) rotate(0.00deg) scale(0.99, 0.99) ;}34.00% {animation-timing-function: cubic-bezier(0.65,0.71,0.32,0.38);transform: translate(0.00px,0.00px) rotate(0.00deg) scale(1.01, 1.01) ;}40.00% {animation-timing-function: cubic-bezier(0.64,0.74,0.31,0.41);transform: translate(0.00px,0.00px) rotate(0.00deg) scale(1.02, 1.02) ;}46.00% {animation-timing-function: cubic-bezier(0.60,0.91,0.23,0.63);transform: translate(0.00px,0.00px) rotate(0.00deg) scale(1.03, 1.03) ;}50.00% {transform: translate(0.00px,0.00px) rotate(0.00deg) scale(1.03, 1.03) ;}54.00% {transform: translate(0.00px,0.00px) rotate(0.00deg) scale(1.03, 1.03) ;}58.00% {animation-timing-function: cubic-bezier(0.69,0.60,0.35,0.27);transform: translate(0.00px,0.00px) rotate(0.00deg) scale(1.03, 1.03) ;}64.00% {transform: translate(0.00px,0.00px) rotate(0.00deg) scale(1.01, 1.01) ;}68.00% {transform: translate(0.00px,0.00px) rotate(0.00deg) scale(1.00, 1.00) ;}72.00% {animation-timing-function: cubic-bezier(0.67,0.66,0.34,0.33);transform: translate(0.00px,0.00px) rotate(0.00deg) scale(0.98, 0.98) ;}76.00% {animation-timing-function: cubic-bezier(0.66,0.68,0.33,0.35);transform: translate(0.00px,0.00px) rotate(0.00deg) scale(0.97, 0.97) ;}82.00% {animation-timing-function: cubic-bezier(0.65,0.71,0.32,0.38);transform: translate(0.00px,0.00px) rotate(0.00deg) scale(0.94, 0.94) ;}88.00% {animation-timing-function: cubic-bezier(0.65,0.73,0.31,0.40);transform: translate(0.00px,0.00px) rotate(0.00deg) scale(0.92, 0.92) ;}94.00% {animation-timing-function: cubic-bezier(0.63,0.80,0.28,0.48);transform: translate(0.00px,0.00px) rotate(0.00deg) scale(0.91, 0.91) ;}100.00% {animation-timing-function: cubic-bezier(0.63,0.80,0.28,0.48);transform: translate(0.00px,0.00px) rotate(0.00deg) scale(0.91, 0.91) ;} }</style><!-- [ldio] generated by https://loading.io --></svg>