<svg xmlns="http://www.w3.org/2000/svg" xmlns:xlink="http://www.w3.org/1999/xlink" viewBox="0 0 280 250" preserveAspectRatio="xMidYMid" style="display: block; shape-rendering: auto; background: rgb(255, 255, 255);" width="280" height="250"><style type="text/css">
  .ld-text text {
    text-anchor: middle;
    dominant-baseline: middle;
    font-size: 27px;
    opacity: 0;
    user-select: none;
    pointer-events: none;
  }
</style>
<g style="transform-origin:140px 125px;transform:scale(1)" class="ld-text">
<g transform="translate(140,125)">
  <g transform="scale(0.3375) translate(0,0)"><g class="path" style="opacity: 1; animation: 3.22581s linear -2.03647s infinite normal forwards running animate-bk8ramynifh; transform-box: view-box; transform-origin: -350.88px -4.19px;"><path d="M14.80 47.63L7.20 47.63L7.20-8.37L40.40-8.37L40.40-1.81L14.80-1.81L14.80 15.31L36.16 15.31L36.16 21.55L14.80 21.55L14.80 47.63" style="fill: rgb(0, 97, 213);" transform="translate(-374.680,-23.817)"></path></g><g class="path" style="opacity: 1; animation: 3.22581s linear -1.9439s infinite normal forwards running animate-bk8ramynifh; transform-box: view-box; transform-origin: -323.88px 3.01px;"><path d="M54.40 47.63L47.20 47.63L47.20 6.03L54.40 6.03L54.40 47.63" style="fill: rgb(0, 97, 213);" transform="translate(-374.680,-23.817)"></path></g><g class="path" style="opacity: 1; animation: 3.22581s linear -1.85133s infinite normal forwards running animate-bk8ramynifh; transform-box: view-box; transform-origin: -323.88px -29.95px;"><path d="M50.80-1.09L50.80-1.09Q48.72-1.09 47.24-2.61Q45.76-4.13 45.76-6.13L45.76-6.13Q45.76-8.45 47.12-9.81Q48.48-11.17 50.80-11.17L50.80-11.17Q52.88-11.17 54.36-9.69Q55.84-8.21 55.84-6.13L55.84-6.13Q55.84-3.89 54.48-2.49Q53.12-1.09 50.80-1.09" style="fill: rgb(0, 97, 213);" transform="translate(-374.680,-23.817)"></path></g><g class="path" style="opacity: 1; animation: 3.22581s linear -1.75877s infinite normal forwards running animate-bk8ramynifh; transform-box: view-box; transform-origin: -290px 2.53px;"><path d="M74.40 47.63L67.20 47.63L67.20 6.03L74.16 6.03L74.16 12.99Q76.40 9.63 79.88 7.35Q83.36 5.07 88.16 5.07L88.16 5.07Q95.20 5.07 98.68 9.31Q102.16 13.55 102.16 20.51L102.16 20.51L102.16 47.63L94.96 47.63L94.96 21.31Q94.96 16.83 92.84 14.11Q90.72 11.39 86.96 11.39L86.96 11.39Q83.28 11.39 80 13.99Q76.72 16.59 74.40 20.11L74.40 20.11L74.40 47.63" style="fill: rgb(0, 97, 213);" transform="translate(-374.680,-23.817)"></path></g><g class="path" style="opacity: 1; animation: 3.22581s linear -1.6662s infinite normal forwards running animate-bk8ramynifh; transform-box: view-box; transform-origin: -241.8px -5.31px;"><path d="M130.32 48.59L130.32 48.59Q125.20 48.59 120.96 45.95Q116.72 43.31 114.24 38.47Q111.76 33.63 111.76 27.07L111.76 27.07Q111.76 20.75 114.28 15.79Q116.80 10.83 121 7.95Q125.20 5.07 130.24 5.07L130.24 5.07Q134.40 5.07 137.40 6.75Q140.40 8.43 142.08 10.19L142.08 10.19L142.08-11.57L149.28-11.57L149.28 37.55Q149.28 40.59 150.76 41.51Q152.24 42.43 154 42.43L154 42.43L152.48 48.03Q144.88 48.03 143.20 41.95L143.20 41.95Q141.44 44.43 138.28 46.51Q135.12 48.59 130.32 48.59 zM131.92 42.19L131.92 42.19Q134.88 42.19 137.56 40.79Q140.24 39.39 142.08 37.15L142.08 37.15L142.08 16.51Q140.56 14.59 137.84 12.95Q135.12 11.31 131.84 11.31L131.84 11.31Q128 11.31 125.12 13.39Q122.24 15.47 120.68 18.95Q119.12 22.43 119.12 26.83L119.12 26.83Q119.12 31.23 120.80 34.71Q122.48 38.19 125.40 40.19Q128.32 42.19 131.92 42.19" style="fill: rgb(0, 97, 213);" transform="translate(-374.680,-23.817)"></path></g><g class="path" style="opacity: 1; animation: 3.22581s linear -1.57363s infinite normal forwards running animate-bk8ramynifh; transform-box: view-box; transform-origin: -207.48px 3.01px;"><path d="M170.80 47.63L163.60 47.63L163.60 6.03L170.80 6.03L170.80 47.63" style="fill: rgb(0, 97, 213);" transform="translate(-374.680,-23.817)"></path></g><g class="path" style="opacity: 1; animation: 3.22581s linear -1.48107s infinite normal forwards running animate-bk8ramynifh; transform-box: view-box; transform-origin: -207.48px -29.95px;"><path d="M167.20-1.09L167.20-1.09Q165.12-1.09 163.64-2.61Q162.16-4.13 162.16-6.13L162.16-6.13Q162.16-8.45 163.52-9.81Q164.88-11.17 167.20-11.17L167.20-11.17Q169.28-11.17 170.76-9.69Q172.24-8.21 172.24-6.13L172.24-6.13Q172.24-3.89 170.88-2.49Q169.52-1.09 167.20-1.09" style="fill: rgb(0, 97, 213);" transform="translate(-374.680,-23.817)"></path></g><g class="path" style="opacity: 1; animation: 3.22581s linear -1.3885s infinite normal forwards running animate-bk8ramynifh; transform-box: view-box; transform-origin: -173.6px 2.53px;"><path d="M190.80 47.63L183.60 47.63L183.60 6.03L190.56 6.03L190.56 12.99Q192.80 9.63 196.28 7.35Q199.76 5.07 204.56 5.07L204.56 5.07Q211.60 5.07 215.08 9.31Q218.56 13.55 218.56 20.51L218.56 20.51L218.56 47.63L211.36 47.63L211.36 21.31Q211.36 16.83 209.24 14.11Q207.12 11.39 203.36 11.39L203.36 11.39Q199.68 11.39 196.40 13.99Q193.12 16.59 190.80 20.11L190.80 20.11L190.80 47.63" style="fill: rgb(0, 97, 213);" transform="translate(-374.680,-23.817)"></path></g><g class="path" style="opacity: 1; animation: 3.22581s linear -1.29593s infinite normal forwards running animate-bk8ramynifh; transform-box: view-box; transform-origin: -127.92px 11.81px;"><path d="M246.24 66.19L246.24 66.19Q242.56 66.19 239.08 65.31Q235.60 64.43 232.88 62.67L232.88 62.67L235.52 56.43Q237.44 57.95 240 58.95Q242.56 59.95 246.24 59.95L246.24 59.95Q251.92 59.95 255.16 56.95Q258.40 53.95 258.40 47.39L258.40 47.39L258.40 42.27Q256.80 44.19 253.80 45.91Q250.80 47.63 246.64 47.63L246.64 47.63Q241.92 47.63 237.68 45.19Q233.44 42.75 230.80 38.03Q228.16 33.31 228.16 26.67L228.16 26.67Q228.16 20.43 230.76 15.55Q233.36 10.67 237.76 7.87Q242.16 5.07 247.44 5.07L247.44 5.07Q250.96 5.07 253.84 6.27Q256.72 7.47 258.80 9.23L258.80 9.23L258.80 6.03L265.36 6.03L265.36 46.67Q265.36 53.55 262.96 57.87Q260.56 62.19 256.28 64.19Q252 66.19 246.24 66.19 zM248.24 41.23L248.24 41.23Q251.44 41.23 254 39.79Q256.56 38.35 258.16 36.43L258.16 36.43L258.16 14.67Q256.40 13.39 253.92 12.35Q251.44 11.31 248.16 11.31L248.16 11.31Q244.88 11.31 242 13.07Q239.12 14.83 237.32 18.15Q235.52 21.47 235.52 26.27L235.52 26.27Q235.52 30.83 237.32 34.19Q239.12 37.55 242 39.39Q244.88 41.23 248.24 41.23" style="fill: rgb(0, 97, 213);" transform="translate(-374.680,-23.817)"></path></g><g class="path" style="opacity: 1; animation: 3.22581s linear -1.20337s infinite normal forwards running animate-bk8ramynifh; transform-box: view-box; transform-origin: -50.44px -4.19px;"><path d="M317.28 48.27L317.28 48.27Q312.72 48.27 309.32 48.03Q305.92 47.79 302.56 47.47L302.56 47.47L302.56-8.21Q306.32-8.61 309.92-8.81Q313.52-9.01 318.16-9.01L318.16-9.01Q325.36-9.01 330.60-6.77Q335.84-4.53 339.24-0.61Q342.64 3.31 344.28 8.47Q345.92 13.63 345.92 19.55L345.92 19.55Q345.92 25.39 344.24 30.59Q342.56 35.79 339.08 39.75Q335.60 43.71 330.20 45.99Q324.80 48.27 317.28 48.27 zM317.52 41.63L317.52 41.63Q324.72 41.63 329.28 38.83Q333.84 36.03 336 31.03Q338.16 26.03 338.16 19.55L338.16 19.55Q338.16 13.79 336 8.75Q333.84 3.71 329.36 0.63Q324.88-2.45 317.92-2.45L317.92-2.45Q315.60-2.45 313.68-2.33Q311.76-2.21 310.16-2.05L310.16-2.05L310.16 41.23Q311.84 41.47 313.68 41.55Q315.52 41.63 317.52 41.63" style="fill: rgb(0, 97, 213);" transform="translate(-374.680,-23.817)"></path></g><g class="path" style="opacity: 1; animation: 3.22581s linear -1.1108s infinite normal forwards running animate-bk8ramynifh; transform-box: view-box; transform-origin: 0.8px 3.49px;"><path d="M369.92 48.59L369.92 48.59Q366.32 48.59 363.12 47.07Q359.92 45.55 357.92 42.15Q355.92 38.75 355.92 33.07L355.92 33.07L355.92 6.03L363.12 6.03L363.12 32.11Q363.12 36.99 365.20 39.59Q367.28 42.19 371.28 42.19L371.28 42.19Q374.56 42.19 377.64 40.87Q380.72 39.55 383.12 37.31L383.12 37.31L383.12 6.03L390.32 6.03L390.32 36.83Q390.32 40.27 391.80 41.35Q393.28 42.43 395.04 42.43L395.04 42.43L393.52 48.03Q386.08 48.03 384.32 42.11L384.32 42.11Q381.52 44.99 377.84 46.79Q374.16 48.59 369.92 48.59" style="fill: rgb(0, 97, 213);" transform="translate(-374.680,-23.817)"></path></g><g class="path" style="opacity: 1; animation: 3.22581s linear -1.01823s infinite normal forwards running animate-bk8ramynifh; transform-box: view-box; transform-origin: 46.68px 11.33px;"><path d="M412.16 65.23L404.96 65.23L404.96 16.67Q404.96 13.95 403.64 12.79Q402.32 11.63 400.24 11.63L400.24 11.63L401.76 6.03Q409.12 6.03 410.96 11.87L410.96 11.87Q411.76 10.67 413.56 9.07Q415.36 7.47 418.04 6.27Q420.72 5.07 424.16 5.07L424.16 5.07Q428.96 5.07 433.16 7.59Q437.36 10.11 439.92 14.87Q442.48 19.63 442.48 26.43L442.48 26.43Q442.48 33.07 439.92 38.07Q437.36 43.07 433.24 45.83Q429.12 48.59 424.32 48.59L424.32 48.59Q420.64 48.59 417.44 47.11Q414.24 45.63 412.16 43.71L412.16 43.71L412.16 65.23 zM422.88 42.19L422.88 42.19Q428.32 42.19 431.72 37.91Q435.12 33.63 435.12 26.67L435.12 26.67Q435.12 21.87 433.40 18.43Q431.68 14.99 428.84 13.15Q426 11.31 422.56 11.31L422.56 11.31Q419.12 11.31 416.36 13.03Q413.60 14.75 412.16 16.75L412.16 16.75L412.16 37.23Q414.24 39.39 416.96 40.79Q419.68 42.19 422.88 42.19" style="fill: rgb(0, 97, 213);" transform="translate(-374.680,-23.817)"></path></g><g class="path" style="opacity: 1; animation: 3.22581s linear -0.925666s infinite normal forwards running animate-bk8ramynifh; transform-box: view-box; transform-origin: 88.04px -5.31px;"><path d="M465.12 48.59L465.12 48.59Q461.44 48.59 458.48 47.19Q455.52 45.79 453.80 42.67Q452.08 39.55 452.08 34.59L452.08 34.59L452.08-11.57L459.28-11.57L459.28 33.87Q459.28 38.19 461.08 40.27Q462.88 42.35 466.08 42.35L466.08 42.35Q467.60 42.35 469.08 41.99Q470.56 41.63 471.60 41.15L471.60 41.15L473.36 46.99Q471.92 47.63 469.80 48.11Q467.68 48.59 465.12 48.59" style="fill: rgb(0, 97, 213);" transform="translate(-374.680,-23.817)"></path></g><g class="path" style="opacity: 1; animation: 3.22581s linear -0.8331s infinite normal forwards running animate-bk8ramynifh; transform-box: view-box; transform-origin: 109.08px 3.01px;"><path d="M487.36 47.63L480.16 47.63L480.16 6.03L487.36 6.03L487.36 47.63" style="fill: rgb(0, 97, 213);" transform="translate(-374.680,-23.817)"></path></g><g class="path" style="opacity: 1; animation: 3.22581s linear -0.740533s infinite normal forwards running animate-bk8ramynifh; transform-box: view-box; transform-origin: 109.08px -29.95px;"><path d="M483.76-1.09L483.76-1.09Q481.68-1.09 480.20-2.61Q478.72-4.13 478.72-6.13L478.72-6.13Q478.72-8.45 480.08-9.81Q481.44-11.17 483.76-11.17L483.76-11.17Q485.84-11.17 487.32-9.69Q488.80-8.21 488.80-6.13L488.80-6.13Q488.80-3.89 487.44-2.49Q486.08-1.09 483.76-1.09" style="fill: rgb(0, 97, 213);" transform="translate(-374.680,-23.817)"></path></g><g class="path" style="opacity: 1; animation: 3.22581s linear -0.647966s infinite normal forwards running animate-bk8ramynifh; transform-box: view-box; transform-origin: 138.76px 3.01px;"><path d="M516.96 48.59L516.96 48.59Q511.04 48.59 506.60 45.83Q502.16 43.07 499.76 38.15Q497.36 33.23 497.36 26.83L497.36 26.83Q497.36 20.83 499.80 15.87Q502.24 10.91 506.80 7.99Q511.36 5.07 517.52 5.07L517.52 5.07Q521.04 5.07 523.72 5.71Q526.40 6.35 528.88 7.55L528.88 7.55L526.72 13.63Q524.48 12.51 522.44 11.99Q520.40 11.47 517.92 11.47L517.92 11.47Q512.32 11.47 508.52 15.51Q504.72 19.55 504.72 26.67L504.72 26.67Q504.72 30.99 506.32 34.51Q507.92 38.03 510.76 40.11Q513.60 42.19 517.44 42.19L517.44 42.19Q520.48 42.19 522.64 41.51Q524.80 40.83 527.28 39.55L527.28 39.55L529.52 45.63Q527.04 46.99 523.96 47.79Q520.88 48.59 516.96 48.59" style="fill: rgb(0, 97, 213);" transform="translate(-374.680,-23.817)"></path></g><g class="path" style="opacity: 1; animation: 3.22581s linear -0.5554s infinite normal forwards running animate-bk8ramynifh; transform-box: view-box; transform-origin: 180.92px 3.01px;"><path d="M553.04 48.59L553.04 48.59Q547.84 48.59 543.60 45.95Q539.36 43.31 536.84 38.47Q534.32 33.63 534.32 27.07L534.32 27.07Q534.32 20.83 536.84 15.87Q539.36 10.91 543.80 7.99Q548.24 5.07 554 5.07L554 5.07Q557.60 5.07 560.52 6.31Q563.44 7.55 565.60 9.39L565.60 9.39L565.60 6.03L572.16 6.03L572.16 37.55Q572.16 40.59 573.64 41.51Q575.12 42.43 576.88 42.43L576.88 42.43L575.36 48.03Q567.68 48.03 566.08 41.79L566.08 41.79Q564.24 44.35 561.08 46.47Q557.92 48.59 553.04 48.59 zM554.64 42.19L554.64 42.19Q557.68 42.19 560.40 40.71Q563.12 39.23 564.96 36.99L564.96 36.99L564.96 14.67Q562.80 13.15 560.20 12.23Q557.60 11.31 554.72 11.31L554.72 11.31Q550.88 11.31 547.96 13.27Q545.04 15.23 543.36 18.71Q541.68 22.19 541.68 26.83L541.68 26.83Q541.68 31.31 543.36 34.79Q545.04 38.27 548 40.23Q550.96 42.19 554.64 42.19" style="fill: rgb(0, 97, 213);" transform="translate(-374.680,-23.817)"></path></g><g class="path" style="opacity: 1; animation: 3.22581s linear -0.462833s infinite normal forwards running animate-bk8ramynifh; transform-box: view-box; transform-origin: 221.28px -2.31px;"><path d="M601.04 48.59L601.04 48.59Q595.04 48.59 591.56 44.63Q588.08 40.67 588.08 33.31L588.08 33.31L588.08 13.79L580.88 13.79L580.88 7.55L588.24 7.55L589.76-5.57L595.28-5.57L595.28 7.55L606.80 7.55L606.80 13.79L595.28 13.79L595.28 33.87Q595.28 38.51 597.24 40.35Q599.20 42.19 601.92 42.19L601.92 42.19Q603.92 42.19 605.72 41.55Q607.52 40.91 609.04 40.03L609.04 40.03L611.04 45.79Q609.44 46.75 606.72 47.67Q604 48.59 601.04 48.59" style="fill: rgb(0, 97, 213);" transform="translate(-374.680,-23.817)"></path></g><g class="path" style="opacity: 1; animation: 3.22581s linear -0.370266s infinite normal forwards running animate-bk8ramynifh; transform-box: view-box; transform-origin: 257.52px 3.01px;"><path d="M633.28 48.59L633.28 48.59Q624.32 48.59 619.08 42.87Q613.84 37.15 613.84 26.83L613.84 26.83Q613.84 20.59 616.20 15.67Q618.56 10.75 622.80 7.91Q627.04 5.07 632.64 5.07L632.64 5.07Q638.64 5.07 642.60 7.67Q646.56 10.27 648.56 14.67Q650.56 19.07 650.56 24.35L650.56 24.35Q650.56 27.15 650.32 29.79L650.32 29.79L621.20 29.79Q621.92 35.63 625.28 38.91Q628.64 42.19 634.16 42.19L634.16 42.19Q637.76 42.19 640.64 41.43Q643.52 40.67 646.16 39.47L646.16 39.47L647.84 45.63Q644.96 46.91 641.36 47.75Q637.76 48.59 633.28 48.59 zM621.12 23.95L621.12 23.95L643.92 23.95Q643.92 17.87 640.88 14.59Q637.84 11.31 632.48 11.31L632.48 11.31Q627.84 11.31 624.80 14.55Q621.76 17.79 621.12 23.95" style="fill: rgb(0, 97, 213);" transform="translate(-374.680,-23.817)"></path></g><g class="path" style="opacity: 1; animation: 3.22581s linear -0.2777s infinite normal forwards running animate-bk8ramynifh; transform-box: view-box; transform-origin: 297.6px 3.01px;"><path d="M671.36 48.59L671.36 48.59Q666.64 48.59 662.84 47.39Q659.04 46.19 656.56 44.27L656.56 44.27L659.60 38.27Q661.68 40.03 664.84 41.19Q668 42.35 671.60 42.35L671.60 42.35Q676.08 42.35 678.36 40.87Q680.64 39.39 680.64 37.07L680.64 37.07Q680.64 35.39 679.80 34.11Q678.96 32.83 676.72 31.59Q674.48 30.35 670.24 28.91L670.24 28.91Q664.40 26.91 661.48 24.15Q658.56 21.39 658.56 16.51L658.56 16.51Q658.56 11.71 662.76 8.39Q666.96 5.07 674.40 5.07L674.40 5.07Q678.40 5.07 681.52 5.91Q684.64 6.75 687.12 8.03L687.12 8.03L685.12 13.95Q682.96 12.67 680.20 11.87Q677.44 11.07 674.08 11.07L674.08 11.07Q669.92 11.07 667.76 12.75Q665.60 14.43 665.60 16.43L665.60 16.43Q665.60 18.35 667.28 19.71Q668.96 21.07 673.84 22.67L673.84 22.67Q681.76 25.31 684.88 28.51Q688 31.71 688 36.51L688 36.51Q688 42.11 683.48 45.35Q678.96 48.59 671.36 48.59" style="fill: rgb(0, 97, 213);" transform="translate(-374.680,-23.817)"></path></g><g class="path" style="opacity: 1; animation: 3.22581s linear -0.185133s infinite normal forwards running animate-bk8ramynifh; transform-box: view-box; transform-origin: 328.52px 19.41px;"><path d="M703.20 48.59L703.20 48.59Q701.04 48.59 699.44 46.99Q697.84 45.39 697.84 43.23L697.84 43.23Q697.84 40.75 699.28 39.31Q700.72 37.87 703.20 37.87L703.20 37.87Q705.28 37.87 706.92 39.47Q708.56 41.07 708.56 43.23L708.56 43.23Q708.56 45.63 707.04 47.11Q705.52 48.59 703.20 48.59" style="fill: rgb(0, 97, 213);" transform="translate(-374.680,-23.817)"></path></g><g class="path" style="opacity: 1; animation: 3.22581s linear -0.0925666s infinite normal forwards running animate-bk8ramynifh; transform-box: view-box; transform-origin: 352.52px 19.41px;"><path d="M727.20 48.59L727.20 48.59Q725.04 48.59 723.44 46.99Q721.84 45.39 721.84 43.23L721.84 43.23Q721.84 40.75 723.28 39.31Q724.72 37.87 727.20 37.87L727.20 37.87Q729.28 37.87 730.92 39.47Q732.56 41.07 732.56 43.23L732.56 43.23Q732.56 45.63 731.04 47.11Q729.52 48.59 727.20 48.59" style="fill: rgb(0, 97, 213);" transform="translate(-374.680,-23.817)"></path></g><g class="path" style="opacity: 1; animation: 3.22581s linear 0s infinite normal forwards running animate-bk8ramynifh; transform-box: view-box; transform-origin: 376.52px 19.41px;"><path d="M751.20 48.59L751.20 48.59Q749.04 48.59 747.44 46.99Q745.84 45.39 745.84 43.23L745.84 43.23Q745.84 40.75 747.28 39.31Q748.72 37.87 751.20 37.87L751.20 37.87Q753.28 37.87 754.92 39.47Q756.56 41.07 756.56 43.23L756.56 43.23Q756.56 45.63 755.04 47.11Q753.52 48.59 751.20 48.59" style="fill: rgb(0, 97, 213);" transform="translate(-374.680,-23.817)"></path></g></g><text dy="0.35em" fill="#0061d5" font-family="ABeeZee" font-size="27">Finding Duplicates...</text>
</g>
</g><style type="text/css">@keyframes animate-bk8ramynifh { 0.00% {animation-timing-function: cubic-bezier(0.33,0.00,0.67,0.00);transform: translate(0.00px,0.00px) rotate(0.00deg) scale(1.00, 1.00) skew(0deg, 0.00deg) ;opacity: 1.00;}78.00% {animation-timing-function: cubic-bezier(0.38,0.25,0.69,0.67);transform: translate(0.00px,0.00px) rotate(0.00deg) ;opacity: 1.00;}92.00% {transform: translate(0.00px,0.00px) rotate(0.00deg) ;opacity: 0.28;}94.00% {transform: translate(0.00px,0.00px) rotate(0.00deg) ;opacity: 0.18;}96.00% {transform: translate(0.00px,0.00px) rotate(0.00deg) ;opacity: 0.07;}100.00% {transform: translate(0.00px,0.00px) rotate(0.00deg) ;opacity: 1.00;} }</style><!-- [ldio] generated by https://loading.io --></svg>